HIERARCHY
ROOT Hips
{
	OFFSET 54.304001 -34.501415 93.892494
	CHANNELS 6 Xposition Yposition Zposition Xrotation Yrotation Zrotation
	JOINT spine
	{
		OFFSET 0.000000 -0.448574 7.800591
		CHANNELS 3 Xrotation Yrotation Zrotation
		JOINT spine1
		{
			OFFSET 0.000000 -0.000004 10.136398
			CHANNELS 3 Xrotation Yrotation Zrotation
			JOINT spine2
			{
				OFFSET 0.000000 0.000000 9.712509
				CHANNELS 3 Xrotation Yrotation Zrotation
				JOINT Neck
				{
					OFFSET 0.000000 -1.188873 24.936111
					CHANNELS 3 Xrotation Yrotation Zrotation
					JOINT Head
					{
						OFFSET 0.000000 -0.000004 7.533844
						CHANNELS 3 Xrotation Yrotation Zrotation
						End Site
						{
							OFFSET 0.000000 6.014017 18.236099
						}
					}
				}
				JOINT RightShoulder
				{
					OFFSET -4.089649 0.569454 10.488800
					CHANNELS 3 Xrotation Yrotation Zrotation
					JOINT RightArm
					{
						OFFSET 0.000000 0.000000 13.757004
						CHANNELS 3 Xrotation Yrotation Zrotation
						JOINT RightArmRoll
						{
							OFFSET 0.000000 -0.000004 6.944778
							CHANNELS 3 Xrotation Yrotation Zrotation
							JOINT RightForeArm
							{
								OFFSET 0.000000 0.000000 20.227692
								CHANNELS 3 Xrotation Yrotation Zrotation
								JOINT RightForeArmRoll
								{
									OFFSET 0.000000 -0.000004 7.793121
									CHANNELS 3 Xrotation Yrotation Zrotation
									JOINT RightHand
									{
										OFFSET 0.000000 0.000000 15.639099
										CHANNELS 3 Xrotation Yrotation Zrotation
										End Site
										{
											OFFSET 0.000000 0.000000 0.100006
										}
									}
								}
							}
						}
					}
				}
				JOINT LeftShoulder
				{
					OFFSET 4.089649 0.569454 10.488800
					CHANNELS 3 Xrotation Yrotation Zrotation
					JOINT LeftArm
					{
						OFFSET 0.000000 0.000000 13.757004
						CHANNELS 3 Xrotation Yrotation Zrotation
						JOINT LeftArmRoll
						{
							OFFSET 0.000000 -0.000004 6.944778
							CHANNELS 3 Xrotation Yrotation Zrotation
							JOINT LeftForeArm
							{
								OFFSET 0.000000 0.000000 20.227692
								CHANNELS 3 Xrotation Yrotation Zrotation
								JOINT LeftForeArmRoll
								{
									OFFSET 0.000000 -0.000004 7.793121
									CHANNELS 3 Xrotation Yrotation Zrotation
									JOINT LeftHand
									{
										OFFSET 0.000000 0.000000 15.639099
										CHANNELS 3 Xrotation Yrotation Zrotation
										End Site
										{
											OFFSET 0.000000 0.000000 0.100006
										}
									}
								}
							}
						}
					}
				}
			}
		}
	}
	JOINT RightUpLeg
	{
		OFFSET -6.914162 1.063580 -1.267883
		CHANNELS 3 Xrotation Yrotation Zrotation
		JOINT RightUpLegRoll
		{
			OFFSET 0.000000 -0.000004 18.337799
			CHANNELS 3 Xrotation Yrotation Zrotation
			JOINT RightLeg
			{
				OFFSET 0.000000 0.000004 -22.708496
				CHANNELS 3 Xrotation Yrotation Zrotation
				JOINT RightLegRoll
				{
					OFFSET 0.000000 -0.000004 22.782799
					CHANNELS 3 Xrotation Yrotation Zrotation
					JOINT RightFoot
					{
						OFFSET 0.000000 -0.000004 18.962906
						CHANNELS 3 Xrotation Yrotation Zrotation
						JOINT RightToeBase
						{
							OFFSET 0.000000 0.000000 15.852005
							CHANNELS 3 Xrotation Yrotation Zrotation
							End Site
							{
								OFFSET 0.006718 0.884888 7.677002
							}
						}
					}
				}
			}
		}
	}
	JOINT LeftUpLeg
	{
		OFFSET 6.914162 1.063580 -1.267883
		CHANNELS 3 Xrotation Yrotation Zrotation
		JOINT LeftUpLegRoll
		{
			OFFSET 0.000000 -0.000004 18.337898
			CHANNELS 3 Xrotation Yrotation Zrotation
			JOINT LeftLeg
			{
				OFFSET 0.000000 -0.000004 22.708405
				CHANNELS 3 Xrotation Yrotation Zrotation
				JOINT LeftLegRoll
				{
					OFFSET 0.000000 -0.000004 22.993393
					CHANNELS 3 Xrotation Yrotation Zrotation
					JOINT LeftFoot
					{
						OFFSET 0.000000 0.000000 18.752197
						CHANNELS 3 Xrotation Yrotation Zrotation
						JOINT LeftToeBase
						{
							OFFSET 0.000000 -0.000004 15.852005
							CHANNELS 3 Xrotation Yrotation Zrotation
							End Site
							{
								OFFSET -0.030113 0.884892 7.677002
							}
						}
					}
				}
			}
		}
	}
}
MOTION
Frames: 12
Frame Time: 0.041667
51.554798 -1.427959 50.375397 -21.372307 0.182962 4.410950 2.512265 -0.651691 -1.102428 9.015344 -1.339690 -2.167257 10.660163 -1.365548 -2.151067 12.033350 29.212193 -0.213470 -9.336660 -20.252192 -1.273274 -6.274345 -59.121393 -7.423465 -39.558646 -133.879508 -73.203973 -0.000001 0.000004 0.000001 54.237371 -15.325903 7.369206 0.000014 0.000007 -3.000020 -4.999582 -7.998797 -0.000114 -4.681278 78.113172 7.186795 109.122838 58.922369 -93.356733 -0.000008 -0.000005 -0.000005 42.408368 13.269536 -2.435488 0.000002 -0.000007 3.000011 -4.999650 7.998703 -0.000022 -70.456878 -179.402049 8.403973 179.999991 0.000005 -2.072002 71.614233 3.856590 3.517070 -0.000000 -0.000002 2.803800 81.593775 7.170246 -0.129076 25.486764 -7.355615 0.003473 -68.748825 170.516806 -25.621144 0.000010 -0.000004 -3.635418 -113.112700 -6.291008 -5.636605 -0.000009 0.000004 -3.894250 80.219172 -11.619590 15.838609 35.139602 7.808800 2.007938 
51.546299 -1.417038 50.379391 -21.365113 0.183769 4.410969 2.509621 -0.651402 -1.102510 9.009777 -1.340618 -2.166893 10.654565 -1.366477 -2.150700 12.079865 29.230297 -0.223808 -9.350514 -20.266201 -1.274744 -6.259342 -59.102761 -7.404227 -39.537376 -133.887458 -73.151674 0.000002 0.000002 0.000000 54.223424 -15.326396 7.364177 0.000014 0.000004 -3.000020 -4.999584 -7.998800 -0.000115 -4.645952 78.119168 7.149725 109.258493 59.050373 -93.575149 -0.000008 -0.000005 -0.000004 42.638866 13.181445 -2.411016 0.000003 -0.000008 3.000010 -4.999650 7.998697 -0.000025 -70.470736 -179.390069 8.397367 179.999991 0.000005 -2.071005 71.625831 3.855296 3.512061 -0.000001 -0.000001 2.802220 81.574739 7.170349 -0.126568 25.486762 -7.355616 0.003473 -68.748777 170.510796 -25.631779 0.000010 -0.000005 -3.636611 -113.114906 -6.295755 -5.641708 -0.000008 0.000003 -3.895490 80.238692 -11.620544 15.852324 35.139913 7.806666 1.998489 
51.530300 -1.391659 50.417698 -21.357414 0.184463 4.411013 2.506859 -0.651012 -1.102569 9.003947 -1.341401 -2.166539 10.648767 -1.367260 -2.150336 12.127206 29.247420 -0.234202 -9.365178 -20.279376 -1.276151 -6.244552 -59.085521 -7.385346 -39.517402 -133.894889 -73.100865 -0.000000 0.000003 0.000001 54.208735 -15.327272 7.359512 0.000012 0.000004 -3.000020 -4.999584 -7.998800 -0.000115 -4.608265 78.124995 7.110144 109.395991 59.179150 -93.795846 -0.000010 -0.000007 -0.000007 42.869846 13.093087 -2.385350 -0.000000 -0.000006 3.000011 -4.999654 7.998700 -0.000022 -70.485517 -179.377829 8.389392 179.999991 0.000005 -2.070006 71.637838 3.853987 3.506933 0.000000 -0.000002 2.800520 81.554494 7.170410 -0.123387 25.486760 -7.355617 0.003472 -68.747691 170.505646 -25.642658 0.000011 -0.000004 -3.638060 -113.116716 -6.300407 -5.647766 -0.000007 0.000004 -3.897040 80.261690 -11.621757 15.869079 35.140374 7.804040 1.986202 
51.540199 -1.398212 50.407784 -21.349515 0.185080 4.411074 2.504010 -0.650552 -1.102612 8.997939 -1.342085 -2.166184 10.642771 -1.367935 -2.149967 12.175405 29.263846 -0.244781 -9.380415 -20.291819 -1.277523 -6.229864 -59.069081 -7.366672 -39.498366 -133.901638 -73.051271 0.000000 0.000003 0.000002 54.193672 -15.328293 7.354841 0.000015 0.000004 -3.000021 -4.999585 -7.998804 -0.000116 -4.568964 78.130841 7.068838 109.535211 59.308486 -94.018353 -0.000006 -0.000006 -0.000006 43.101052 13.004741 -2.358668 0.000003 -0.000006 3.000011 -4.999651 7.998697 -0.000023 -70.500905 -179.365590 8.381203 179.999991 0.000005 -2.068996 71.650351 3.852640 3.501583 -0.000001 -0.000002 2.798740 81.533621 7.170303 -0.119781 25.486762 -7.355615 0.003472 -68.745854 170.501452 -25.654406 0.000011 -0.000005 -3.639710 -113.118328 -6.305419 -5.652888 -0.000007 0.000003 -3.898798 80.287173 -11.623037 15.887875 35.140890 7.801084 1.971929 
51.525501 -1.392654 50.418083 -21.341416 0.185651 4.411147 2.501116 -0.650051 -1.102646 8.991820 -1.342710 -2.165822 10.636668 -1.368562 -2.149600 12.223797 29.279850 -0.255330 -9.395986 -20.303950 -1.278887 -6.215263 -59.053249 -7.348148 -39.479576 -133.908509 -73.001868 0.000001 0.000003 0.000001 54.178225 -15.329499 7.350354 0.000014 0.000003 -3.000021 -4.999584 -7.998799 -0.000114 -4.528689 78.136606 7.026489 109.679144 59.437447 -94.245990 -0.000008 -0.000006 -0.000005 43.332428 12.916652 -2.331175 0.000003 -0.000007 3.000011 -4.999655 7.998700 -0.000023 -70.516697 -179.353063 8.371964 179.999991 0.000005 -2.067001 71.662959 3.851301 3.496234 -0.000000 -0.000002 2.796920 81.512243 7.170208 -0.116040 25.486759 -7.355615 0.003473 -68.743586 170.497504 -25.666145 0.000011 -0.000003 -3.641447 -113.119940 -6.310019 -5.658925 -0.000008 0.000005 -3.900699 80.314104 -11.624308 15.907828 35.141497 7.797926 1.956530 
51.525101 -1.388252 50.416199 -21.333316 0.186210 4.411214 2.498192 -0.649540 -1.102692 8.985671 -1.343326 -2.165463 10.630472 -1.369170 -2.149230 12.272427 29.295702 -0.265959 -9.411634 -20.315875 -1.280226 -6.200692 -59.037498 -7.329669 -39.460772 -133.915394 -72.952540 -0.000000 0.000004 -0.000001 54.162782 -15.330710 7.345764 0.000014 0.000004 -3.000021 -4.999583 -7.998799 -0.000114 -4.488151 78.142364 6.983867 109.822892 59.566838 -94.472793 -0.000006 -0.000005 -0.000003 43.563776 12.828870 -2.302856 0.000003 -0.000006 3.000011 -4.999654 7.998700 -0.000022 -70.532502 -179.340892 8.363568 179.999991 0.000005 -2.066005 71.675670 3.849977 3.490779 0.000000 -0.000001 2.795080 81.490755 7.170105 -0.112194 25.486767 -7.355616 0.003473 -68.741319 170.493570 -25.677476 0.000010 -0.000004 -3.643233 -113.121552 -6.314617 -5.665956 -0.000007 0.000001 -3.902621 80.341343 -11.625643 15.928008 35.142204 7.794716 1.940828 
51.528801 -1.404812 50.416092 -21.325220 0.186794 4.411283 2.495305 -0.649049 -1.102726 8.979585 -1.343960 -2.165109 10.624371 -1.369807 -2.148871 12.320866 29.311753 -0.276600 -9.427124 -20.328106 -1.281601 -6.186117 -59.021543 -7.311159 -39.441860 -133.922237 -72.903042 -0.000001 0.000003 -0.000000 54.147506 -15.331782 7.341145 0.000014 0.000005 -3.000020 -4.999582 -7.998801 -0.000114 -4.448027 78.148108 6.941689 109.970991 59.695266 -94.703838 -0.000008 -0.000006 -0.000006 43.795064 12.741692 -2.274005 -0.000001 -0.000010 3.000009 -4.999655 7.998700 -0.000022 -70.548116 -179.328734 8.355461 179.999991 0.000005 -2.064992 71.688286 3.848601 3.485522 -0.000001 -0.000001 2.793270 81.469458 7.170061 -0.108558 25.486764 -7.355617 0.003472 -68.739201 170.489253 -25.688575 0.000011 -0.000004 -3.644949 -113.123062 -6.319615 -5.671058 -0.000007 0.000002 -3.904490 80.367899 -11.626920 15.947723 35.142816 7.791610 1.925692 
51.527802 -1.401299 50.419296 -21.317417 0.187432 4.411343 2.492484 -0.648609 -1.102777 8.973623 -1.344674 -2.164749 10.618472 -1.370511 -2.148505 12.368810 29.328310 -0.287219 -9.442208 -20.340744 -1.283015 -6.171448 -59.004898 -7.292489 -39.422715 -133.928972 -72.853393 -0.000001 0.000004 -0.000001 54.132459 -15.332844 7.336564 0.000013 0.000006 -3.000020 -4.999582 -7.998806 -0.000115 -4.409028 78.153934 6.900718 110.120148 59.823332 -94.935108 -0.000007 -0.000005 -0.000005 44.026115 12.655305 -2.244747 0.000003 -0.000005 3.000011 -4.999650 7.998699 -0.000024 -70.563442 -179.316248 8.346503 179.999991 0.000005 -2.063997 71.700594 3.847286 3.480186 -0.000002 -0.000002 2.791520 81.448722 7.170013 -0.105052 25.486760 -7.355616 0.003473 -68.737617 170.484732 -25.699869 0.000011 -0.000004 -3.646537 -113.124769 -6.324239 -5.677104 -0.000008 0.000004 -3.906190 80.392679 -11.628114 15.965963 35.143362 7.788740 1.911988 
51.545898 -1.394501 50.381489 -21.309820 0.188160 4.411379 2.489746 -0.648250 -1.102844 8.967874 -1.345505 -2.164397 10.612676 -1.371333 -2.148135 12.416069 29.345717 -0.297829 -9.456653 -20.354119 -1.284488 -6.156698 -58.987255 -7.273622 -39.402412 -133.936280 -72.802358 -0.000001 0.000003 -0.000001 54.118031 -15.333539 7.331694 0.000013 0.000004 -3.000020 -4.999585 -7.998800 -0.000115 -4.371831 78.159829 6.861664 110.270173 59.950742 -95.166146 -0.000005 -0.000005 -0.000005 44.256644 12.569837 -2.215143 0.000004 -0.000007 3.000011 -4.999653 7.998700 -0.000022 -70.577943 -179.304419 8.339837 179.999991 0.000005 -2.063000 71.712499 3.845987 3.475067 0.000001 -0.000001 2.789850 81.428955 7.170021 -0.102208 25.486762 -7.355617 0.003473 -68.736640 170.479609 -25.711407 0.000010 -0.000004 -3.647908 -113.126777 -6.328943 -5.682188 -0.000007 0.000001 -3.907650 80.414617 -11.629179 15.981727 35.143717 7.786271 1.900559 
51.541302 -1.396622 50.389297 -21.302721 0.189011 4.411383 2.487160 -0.648001 -1.102924 8.962416 -1.346503 -2.164040 10.607276 -1.372321 -2.147773 12.462340 29.364271 -0.308397 -9.470190 -20.368526 -1.286026 -6.141770 -58.968104 -7.254416 -39.380306 -133.944927 -72.749062 -0.000001 0.000005 0.000001 54.104302 -15.333993 7.326704 0.000013 0.000006 -3.000021 -4.999583 -7.998802 -0.000115 -4.337149 78.165866 6.825296 110.420895 60.077313 -95.396494 -0.000006 -0.000006 -0.000005 44.486607 12.485527 -2.185415 0.000001 -0.000007 3.000009 -4.999654 7.998698 -0.000025 -70.591480 -179.292247 8.332628 179.999991 0.000005 -2.062001 71.723898 3.844693 3.470067 -0.000002 -0.000001 2.788309 81.410268 7.170207 -0.099814 25.486760 -7.355616 0.003473 -68.736927 170.473325 -25.722175 0.000011 -0.000004 -3.648999 -113.128963 -6.333695 -5.687288 -0.000007 0.000002 -3.908751 80.432752 -11.629964 15.994317 35.143850 7.784336 1.892251 
51.539200 -1.382515 50.376801 -21.296118 0.190021 4.411361 2.484743 -0.647894 -1.103036 8.957336 -1.347698 -2.163685 10.602182 -1.373513 -2.147407 12.507316 29.384317 -0.318903 -9.482621 -20.384179 -1.287671 -6.126640 -58.947162 -7.234816 -39.356008 -133.954790 -72.693198 -0.000004 0.000002 -0.000001 54.091488 -15.333992 7.321507 0.000013 0.000005 -3.000020 -4.999583 -7.998797 -0.000114 -4.305663 78.172055 6.792336 110.573611 60.202326 -95.627470 -0.000010 -0.000005 -0.000005 44.715913 12.402445 -2.155673 0.000003 -0.000005 3.000010 -4.999652 7.998700 -0.000025 -70.603905 -179.280718 8.327826 179.999991 0.000005 -2.062002 71.734588 3.843440 3.465297 0.000000 -0.000002 2.786940 81.393247 7.170474 -0.098424 25.486766 -7.355615 0.003473 -68.738751 170.465512 -25.731793 0.000010 -0.000004 -3.649703 -113.131654 -6.338161 -5.692365 -0.000010 0.000006 -3.909421 80.445852 -11.630647 16.002600 35.143724 7.783084 1.887933 
51.541302 -1.386406 50.369694 -21.290127 0.191219 4.411295 2.482533 -0.647959 -1.103168 8.952702 -1.349137 -2.163339 10.597486 -1.374950 -2.147034 12.550685 29.406075 -0.329300 -9.493662 -20.401386 -1.289430 -6.111256 -58.923933 -7.214711 -39.330217 -133.965076 -72.635742 -0.000001 0.000002 0.000001 54.079713 -15.333486 7.315823 0.000013 0.000006 -3.000019 -4.999583 -7.998800 -0.000113 -4.278060 78.178386 6.763518 110.726567 60.325938 -95.856958 -0.000004 -0.000006 -0.000005 44.944434 12.320912 -2.126205 0.000002 -0.000006 3.000011 -4.999653 7.998703 -0.000021 -70.614826 -179.269147 8.323734 179.999991 0.000005 -2.061004 71.744457 3.842223 3.460762 0.000000 -0.000001 2.785759 81.377988 7.170976 -0.097924 25.486764 -7.355616 0.003472 -68.742104 170.456223 -25.741164 0.000011 -0.000004 -3.649948 -113.134727 -6.342716 -5.696470 -0.000008 0.000004 -3.909550 80.453071 -11.630939 16.006016 35.143273 7.782657 1.888437 
